<svg viewBox="0 0 20 30" xmlns="http://www.w3.org/2000/svg" xmlns:xlink="http://www.w3.org/1999/xlink" id="Layer_1" overflow="hidden"><defs></defs><path d="M2.55 5.14 1.24 8.56 1.24 11.85 3.19 14.12 3.62 15.89 6.43 23.44 9.63 28.38 10.35 27.94 16.31 17.62 18.63 10.46 17.75 8.48 17.25 6.81 15.74 2.86 11.56 1.34 6.36 1.72 2.55 5.14Z" fill="#DF6126"/><path d="M3.19 14.12 4.78 12.92C4.98096 12.7746 5.13413 12.5727 5.22 12.34L6.12 11.65C6.77235 12.1485 7.67765 12.1485 8.33 11.65 8.33 11.65 13.85 7.57 13.71 7.38 13.57 7.19 11.18 8.6 9.93 9.5 9.94011 9.44378 9.94011 9.38622 9.93 9.33L10.31 9.06C10.75 8.73 11.5 8.13 12.07 7.64 13.23 6.64 13.18 6.58 13.13 6.52 13.08 6.46 13.03 6.38 11.75 7.22 11.12 7.63 10.34 8.22 9.89 8.5L9.69 8.66 9.59 8.51 9.59 8.51 9.79 8.36C10.2 8 11 7.39 11.51 6.9 12.67 5.9 12.62 5.84 12.57 5.77 12.52 5.7 12.47 5.64 11.19 6.48 10.56 6.89 9.78 7.43 9.33 7.76L9 8 8.75 7.9C9.96 6.9 11.98 5.12 11.75 4.9 11.52 4.68 6.19 8.8 6.19 8.8 5.51774 9.28775 5.2693 10.1739 5.59 10.94L4.69 11.62C4.43813 11.6307 4.19632 11.7219 4 11.88L2.59 12.88C2.29256 11.947 2.12105 10.9784 2.08 10 2.05226 5.63152 5.57113 2.06767 9.93962 2.03993 13.1126 2.01979 15.9905 3.89765 17.25 6.81 17.42 6.67 17.61 6.54 17.79 6.4 17.97 6.26 18.35 5.95 18.63 5.72 16.6143 0.953782 11.1166-1.27599 6.35034 0.739657 2.88293 2.20604 0.629862 5.60527 0.629999 9.37 0.711458 10.86 1.0148 12.3295 1.53 13.73L2 15" fill="#FFFFFF"/><path d="M19.17 7.46C18.7 7.79 18.23 8.11 17.75 8.46L14.25 11.14 14.25 11.14 5.68 17.7 5.68 17.7 5.38 17.92C5.48705 18.0229 5.63172 18.0771 5.78 18.07L5.92 18.07C5.95096 18.1105 5.97776 18.1541 6 18.2 6.0725 18.328 6.19019 18.4243 6.33 18.47 6.45758 18.4758 6.5837 18.4408 6.69 18.37 6.73347 18.3407 6.78052 18.3172 6.83 18.3L6.94 18.36C7.04217 18.449 7.17458 18.4956 7.31 18.49 7.4314 18.4694 7.53946 18.4009 7.61 18.3 7.6428 18.2614 7.6838 18.2307 7.73 18.21 7.76953 18.2013 7.81047 18.2013 7.85 18.21 7.96684 18.2708 8.10139 18.2885 8.23 18.26 8.34929 18.2219 8.44948 18.1396 8.51 18.03L8.6 18 8.74 18C8.96075 18.1142 9.23226 18.0278 9.34644 17.807 9.34764 17.8047 9.34883 17.8024 9.35 17.8 9.35 17.8 9.35 17.8 9.35 17.8 9.37073 17.7563 9.39767 17.7159 9.43 17.68 9.47613 17.67 9.52387 17.67 9.57 17.68 9.80746 17.7677 10.0711 17.647 10.16 17.41L10.16 17.41C10.1739 17.3672 10.1941 17.3268 10.22 17.29L10.37 17.29C10.4922 17.3138 10.6189 17.2962 10.73 17.24 10.8328 17.1653 10.9097 17.0605 10.95 16.94 10.9618 16.8964 10.9822 16.8556 11.01 16.82 11.0561 16.81 11.1039 16.81 11.15 16.82 11.2852 16.8484 11.426 16.8308 11.55 16.77 11.6422 16.6915 11.7084 16.5869 11.74 16.47 11.7558 16.4249 11.7759 16.3813 11.8 16.34L12 16.34C12.1235 16.3511 12.2471 16.3193 12.35 16.25 12.4396 16.1778 12.485 16.0641 12.47 15.95L12.47 15.95C12.6213 16.0301 12.8089 15.9725 12.8891 15.8212 12.9217 15.7595 12.9326 15.6886 12.92 15.62L12.92 15.62C13.0615 15.7076 13.2468 15.6678 13.34 15.53 13.369 15.4492 13.369 15.3608 13.34 15.28L13.34 15.28C13.4581 15.3075 13.5822 15.2737 13.67 15.19 13.758 15.1166 13.8031 15.0038 13.79 14.89L13.79 14.89C13.8943 14.9403 14.0157 14.9403 14.12 14.89 14.1984 14.81 14.2416 14.702 14.24 14.59L14.24 14.59C14.4249 14.6462 14.6204 14.5418 14.6766 14.3569 14.6901 14.3126 14.6946 14.2661 14.69 14.22L14.69 14.22C14.7908 14.27 14.9092 14.27 15.01 14.22 15.0911 14.141 15.1379 14.0332 15.14 13.92L15.14 13.92C15.2961 13.9904 15.4797 13.9209 15.55 13.7648 15.5776 13.7037 15.5846 13.6354 15.57 13.57 15.6684 13.6293 15.7916 13.6293 15.89 13.57L15.67 13.27C15.689 13.261 15.711 13.261 15.73 13.27L15.73 13.27 15.66 13.27 15 12.17 17.89 10 17.89 10C17.89 14.92 10.89 26 9.68 27.4 7.31647 23.7543 5.28818 19.9018 3.62 15.89 3.25 16.14 2.9 16.35 2.55 16.59 4.50935 21.2584 6.87511 25.7457 9.62 30 11.06 28.33 19.37 15.2 19.37 9.37L19.37 8.82Z" fill="#FFFFFF"/></svg>