<svg id="Layer_1" data-name="Layer 1" xmlns="http://www.w3.org/2000/svg" viewBox="0 0 20 30"><defs><style>.cls-1{fill:#df6126;}.cls-2{fill:#fff;}</style></defs><polygon class="cls-1" points="2.55 5.14 1.24 8.56 1.24 11.85 3.19 14.12 3.62 15.89 6.43 23.44 9.63 28.38 10.35 27.94 16.31 17.62 18.63 10.46 17.75 8.48 17.25 6.81 15.74 2.86 11.56 1.34 6.36 1.72 2.55 5.14"/><path class="cls-2" d="M3.19,14.12l1.59-1.2a1.25,1.25,0,0,0,.44-.58l.9-.69a1.82,1.82,0,0,0,2.21,0s5.52-4.08,5.38-4.27S11.18,8.6,9.93,9.5a.48.48,0,0,0,0-.17l.38-.27c.44-.33,1.19-.93,1.76-1.42,1.16-1,1.11-1.06,1.06-1.12s-.1-.14-1.38.7c-.63.41-1.41,1-1.86,1.28l-.2.16-.1-.15,0,0,.2-.15C10.2,8,11,7.39,11.51,6.9c1.16-1,1.11-1.06,1.06-1.13s-.1-.13-1.38.71c-.63.41-1.41.95-1.86,1.28L9,8,8.75,7.9c1.21-1,3.23-2.78,3-3S6.19,8.8,6.19,8.8a1.79,1.79,0,0,0-.6,2.14l-.9.68a1.18,1.18,0,0,0-.69.26l-1.41,1A11,11,0,0,1,2.08,10,7.91,7.91,0,0,1,17.25,6.81c.17-.14.36-.27.54-.41s.56-.45.84-.68a9.37,9.37,0,0,0-18,3.65,15,15,0,0,0,.9,4.36L2,15"/><path class="cls-2" d="M19.17,7.46c-.47.33-.94.65-1.42,1l-3.5,2.68h0L5.68,17.7h0l-.3.22a.54.54,0,0,0,.4.15l.14,0A.76.76,0,0,1,6,18.2a.59.59,0,0,0,.33.27.6.6,0,0,0,.36-.1.61.61,0,0,1,.14-.07l.11.06a.53.53,0,0,0,.37.13.46.46,0,0,0,.3-.19.34.34,0,0,1,.12-.09.28.28,0,0,1,.12,0,.56.56,0,0,0,.38.05.49.49,0,0,0,.28-.23L8.6,18l.14,0a.45.45,0,0,0,.61-.2s0,0,0,0a.5.5,0,0,1,.08-.12.33.33,0,0,1,.14,0,.46.46,0,0,0,.59-.27v0a.45.45,0,0,1,.06-.12h.15a.56.56,0,0,0,.36-.05.61.61,0,0,0,.22-.3.34.34,0,0,1,.06-.12.33.33,0,0,1,.14,0,.62.62,0,0,0,.4-.05.6.6,0,0,0,.19-.3.75.75,0,0,1,.06-.13H12a.54.54,0,0,0,.35-.09.33.33,0,0,0,.12-.3h0a.31.31,0,0,0,.45-.33h0a.31.31,0,0,0,.42-.09.37.37,0,0,0,0-.25h0a.36.36,0,0,0,.33-.09.34.34,0,0,0,.12-.3h0a.38.38,0,0,0,.33,0,.42.42,0,0,0,.12-.3h0a.35.35,0,0,0,.45-.37h0a.36.36,0,0,0,.32,0,.43.43,0,0,0,.13-.3h0a.31.31,0,0,0,.43-.35.31.31,0,0,0,.32,0l-.22-.3a.07.07,0,0,1,.06,0h0l-.07,0L15,12.17,17.89,10V10c0,4.92-7,16-8.21,17.4A71.92,71.92,0,0,1,3.62,15.89c-.37.25-.72.46-1.07.7A86.43,86.43,0,0,0,9.62,30c1.44-1.67,9.75-14.8,9.75-20.63V8.82Z"/></svg>